<svg id="visual" viewBox="0 0 960 540" width="960" height="540" xmlns="http://www.w3.org/2000/svg" xmlns:xlink="http://www.w3.org/1999/xlink" version="1.1"><g><g transform="translate(159 21)"><path d="M0 -55.9L48.4 -28L48.4 28L0 55.9L-48.4 28L-48.4 -28Z" fill="#4F46E5"></path></g><g transform="translate(81 113)"><path d="M0 -34L29.4 -17L29.4 17L0 34L-29.4 17L-29.4 -17Z" fill="#4F46E5"></path></g><g transform="translate(487 147)"><path d="M0 -41L35.5 -20.5L35.5 20.5L0 41L-35.5 20.5L-35.5 -20.5Z" fill="#4F46E5"></path></g><g transform="translate(279 412)"><path d="M0 -40L34.6 -20L34.6 20L0 40L-34.6 20L-34.6 -20Z" fill="#4F46E5"></path></g><g transform="translate(415 3)"><path d="M0 -46L39.8 -23L39.8 23L0 46L-39.8 23L-39.8 -23Z" fill="#4F46E5"></path></g><g transform="translate(933 122)"><path d="M0 -35L30.3 -17.5L30.3 17.5L0 35L-30.3 17.5L-30.3 -17.5Z" fill="#4F46E5"></path></g><g transform="translate(121 518)"><path d="M0 -47L40.7 -23.5L40.7 23.5L0 47L-40.7 23.5L-40.7 -23.5Z" fill="#4F46E5"></path></g></g></svg>